<svg xmlns="http://www.w3.org/2000/svg" x="0px" y="0px" width="30" height="30" viewBox="0,0,256,256"
style="fill:#000000;">
<g fill="#ff6700" fill-rule="nonzero" stroke="none" stroke-width="1" stroke-linecap="butt" stroke-linejoin="miter" stroke-miterlimit="10" stroke-dasharray="" stroke-dashoffset="0" font-family="none" font-weight="none" font-size="none" text-anchor="none" style="mix-blend-mode: normal"><g transform="scale(10.66667,10.66667)"><path d="M17,3h-10c-2.206,0 -4,1.794 -4,4v10c0,2.206 1.794,4 4,4h10c2.206,0 4,-1.794 4,-4v-10c0,-2.206 -1.794,-4 -4,-4zM11,16h-2v-5h2zM15,16h-1.982v-4.625c0,-0.771 -0.622,-1.393 -1.393,-1.393h-4.625v6.018h-2v-8h7.214c1.537,0 2.786,1.249 2.786,2.786zM18.982,15.982h-1.982v-7.982h1.982z"></path></g></g>
</svg>