<svg xmlns="http://www.w3.org/2000/svg" x="0px" y="0px" width="30" height="30" viewBox="0,0,256,256"
style="fill:#000000;">
<g fill="#878787" fill-rule="nonzero" stroke="none" stroke-width="1" stroke-linecap="butt" stroke-linejoin="miter" stroke-miterlimit="10" stroke-dasharray="" stroke-dashoffset="0" font-family="none" font-weight="none" font-size="none" text-anchor="none" style="mix-blend-mode: normal"><g transform="scale(8.53333,8.53333)"><path d="M21,4h-12c-2.761,0 -5,2.239 -5,5v12c0,2.761 2.239,5 5,5h12c2.761,0 5,-2.239 5,-5v-12c0,-2.761 -2.239,-5 -5,-5zM14,19h-2v-5.5h2zM18,19h-2v-5.5c0,-0.83 -0.67,-1.5 -1.5,-1.5h-4.5v7h-2v-9h7c1.655,0 3,1.345 3,3zM22,19h-2v-9h2z"></path></g></g>
</svg>